# FreeCAD v0.20 build29177 (Git) Arch module
# http://www.freecadweb.org
#mtllib cube2mm.mtl
#o Box
#usemtl color_cccccc
v -1.0 -1.0 -1.0
v -1.0 -1.0 1.0
v -1.0 1.0 -1.0
v -1.0 1.0 1.0
v 1.0 -1.0 1.0
v 1.0 -1.0 -1.0
v 1.0 1.0 -1.0
v 1.0 1.0 1.0
vt 0.0000000 0.0000000
vt 0.2500000 0.0000000
vt 0.5000000 0.0000000
vt 0.7500000 0.0000000
vt 1.0000000 0.0000000
vt 0.0000000 0.3333333
vt 0.2500000 0.3333333
vt 0.5000000 0.3333333
vt 0.7500000 0.3333333
vt 1.0000000 0.3333333
vt 0.0000000 0.6666666
vt 0.2500000 0.6666666
vt 0.5000000 0.6666666
vt 0.7500000 0.6666666
vt 1.0000000 0.6666666
vt 0.0000000 1.0000000
vt 0.2500000 1.0000000
vt 0.5000000 1.0000000
vt 0.7500000 1.0000000
vt 1.0000000 1.0000000
vn -1.0 0.0 0.0
vn -1.0 0.0 0.0
vn 1.0 0.0 0.0
vn 1.0 0.0 0.0
vn 0.0 -1.0 0.0
vn 0.0 -1.0 0.0
vn 0.0 1.0 0.0
vn 0.0 1.0 0.0
vn 0.0 0.0 -1.0
vn 0.0 0.0 -1.0
vn 0.0 0.0 1.0
vn 0.0 0.0 1.0
#f 1/6/1 2/7/1 3/11/1 
#f 3/11/2 2/7/2 4/12/2
#f 8/13/11 4/12/11 2/7/11 
#f 2/7/12 5/8/12 8/13/12
#f 8/13/4 7/14/4 5/8/4 
#f 5/8/3 6/9/3 7/14/3 
f 6/3/5 5/8/5 1/2/5 
f 1/2/6 5/8/6 2/7/6 
f 1/10/10 7/14/10 6/9/10
f 3/15/9 7/14/9 1/10/9

#f 3/15/9 7/14/9 1/10/9 
#f 1/10/10 7/14/10 6/9/10 
#f 6/3/5 5/8/5 1/2/5 
#f 1/2/6 5/8/6 2/7/6 
#f 8/1/7 7/2/7 3/3/7 
#f 8/1/8 3/2/8 4/3/8 
#f 3/1/9 7/2/9 1/3/9 
#f 1/1/10 7/2/10 6/3/10 
